<svg width="23" height="19" viewBox="0 0 23 19" fill="none" xmlns="http://www.w3.org/2000/svg">
<path d="M15.2285 3.67383C15.2285 3.09491 15.0309 2.52773 14.6586 2.03731C14.2862 1.54689 13.754 1.15309 13.1231 0.901069C12.4922 0.649051 11.7881 0.549015 11.0916 0.612434C10.395 0.675853 9.73414 0.900158 9.18482 1.25963C8.6355 1.6191 8.21993 2.09918 7.98578 2.64482C7.75162 3.19046 7.70835 3.77958 7.86094 4.3446C8.01352 4.90963 8.35578 5.42769 8.84846 5.83939C9.34114 6.25108 9.9643 6.53974 10.6465 6.67227V17.2188L11.5 18.4062L12.3535 17.2188V6.67227C13.1706 6.51164 13.8985 6.12853 14.42 5.58463C14.9415 5.04073 15.2263 4.36768 15.2285 3.67383ZM12.5781 3.45117C12.3915 3.45117 12.2092 3.40547 12.054 3.31984C11.8989 3.23421 11.778 3.1125 11.7066 2.9701C11.6352 2.8277 11.6165 2.67101 11.6529 2.51984C11.6893 2.36867 11.7791 2.22982 11.9111 2.12083C12.043 2.01184 12.2111 1.93762 12.3941 1.90755C12.5771 1.87748 12.7668 1.89292 12.9391 1.9519C13.1115 2.01088 13.2588 2.11077 13.3625 2.23892C13.4662 2.36708 13.5215 2.51774 13.5215 2.67187C13.5215 2.87856 13.4221 3.07677 13.2452 3.22292C13.0683 3.36907 12.8283 3.45117 12.5781 3.45117Z" fill="#7F5539"/>
</svg>
