<svg width="59" height="51" viewBox="0 0 59 51" fill="none" xmlns="http://www.w3.org/2000/svg">
<path d="M30.5 16.4178C29.6436 16.4178 28.8222 16.0417 28.2166 15.3724C27.6111 14.7031 27.2708 13.7953 27.2708 12.8487C27.2708 11.9021 27.6111 10.9943 28.2166 10.325C28.8222 9.65564 29.6436 9.27961 30.5 9.27961C31.3564 9.27961 32.1778 9.65564 32.7834 10.325C33.389 10.9943 33.7292 11.9021 33.7292 12.8487C33.7292 13.3174 33.6456 13.7815 33.4834 14.2145C33.3211 14.6475 33.0832 15.041 32.7834 15.3724C32.4835 15.7038 32.1275 15.9667 31.7358 16.1461C31.344 16.3255 30.9241 16.4178 30.5 16.4178ZM30.5 2.85527C28.102 2.85527 25.8022 3.90815 24.1066 5.78228C22.4109 7.65641 21.4583 10.1983 21.4583 12.8487C21.4583 20.3438 30.5 31.4079 30.5 31.4079C30.5 31.4079 39.5417 20.3438 39.5417 12.8487C39.5417 10.1983 38.5891 7.65641 36.8934 5.78228C35.1978 3.90815 32.898 2.85527 30.5 2.85527Z" fill="#7F5539"/>
<path d="M0.65 50C0.54 50 0.455 49.97 0.395 49.91C0.335 49.84 0.305 49.755 0.305 49.655V39.845C0.305 39.745 0.335 39.665 0.395 39.605C0.455 39.535 0.54 39.5 0.65 39.5H1.445C1.545 39.5 1.625 39.535 1.685 39.605C1.745 39.665 1.775 39.745 1.775 39.845V48.695H6.77C6.88 48.695 6.965 48.73 7.025 48.8C7.085 48.86 7.115 48.945 7.115 49.055V49.655C7.115 49.755 7.085 49.84 7.025 49.91C6.965 49.97 6.88 50 6.77 50H0.65ZM11.596 50.15C10.836 50.15 10.201 50.005 9.69102 49.715C9.18102 49.425 8.79102 49.025 8.52102 48.515C8.25102 47.995 8.10102 47.405 8.07102 46.745C8.06102 46.575 8.05602 46.36 8.05602 46.1C8.05602 45.83 8.06102 45.615 8.07102 45.455C8.10102 44.785 8.25102 44.195 8.52102 43.685C8.80102 43.175 9.19602 42.775 9.70602 42.485C10.216 42.195 10.846 42.05 11.596 42.05C12.346 42.05 12.976 42.195 13.486 42.485C13.996 42.775 14.386 43.175 14.656 43.685C14.936 44.195 15.091 44.785 15.121 45.455C15.131 45.615 15.136 45.83 15.136 46.1C15.136 46.36 15.131 46.575 15.121 46.745C15.091 47.405 14.941 47.995 14.671 48.515C14.401 49.025 14.011 49.425 13.501 49.715C12.991 50.005 12.356 50.15 11.596 50.15ZM11.596 48.995C12.216 48.995 12.711 48.8 13.081 48.41C13.451 48.01 13.651 47.43 13.681 46.67C13.691 46.52 13.696 46.33 13.696 46.1C13.696 45.87 13.691 45.68 13.681 45.53C13.651 44.77 13.451 44.195 13.081 43.805C12.711 43.405 12.216 43.205 11.596 43.205C10.976 43.205 10.476 43.405 10.096 43.805C9.72602 44.195 9.53102 44.77 9.51102 45.53C9.50102 45.68 9.49602 45.87 9.49602 46.1C9.49602 46.33 9.50102 46.52 9.51102 46.67C9.53102 47.43 9.72602 48.01 10.096 48.41C10.476 48.8 10.976 48.995 11.596 48.995ZM20.1643 50.15C19.4543 50.15 18.8393 50.015 18.3193 49.745C17.8093 49.465 17.4143 49.07 17.1343 48.56C16.8543 48.04 16.7043 47.42 16.6843 46.7C16.6743 46.55 16.6693 46.35 16.6693 46.1C16.6693 45.85 16.6743 45.65 16.6843 45.5C16.7043 44.78 16.8543 44.165 17.1343 43.655C17.4143 43.135 17.8093 42.74 18.3193 42.47C18.8393 42.19 19.4543 42.05 20.1643 42.05C20.7443 42.05 21.2393 42.13 21.6493 42.29C22.0693 42.45 22.4143 42.655 22.6843 42.905C22.9543 43.155 23.1543 43.425 23.2843 43.715C23.4243 44.005 23.4993 44.28 23.5093 44.54C23.5193 44.64 23.4893 44.72 23.4193 44.78C23.3493 44.84 23.2643 44.87 23.1643 44.87H22.4443C22.3443 44.87 22.2693 44.85 22.2193 44.81C22.1693 44.76 22.1193 44.68 22.0693 44.57C21.8893 44.08 21.6443 43.735 21.3343 43.535C21.0243 43.335 20.6393 43.235 20.1793 43.235C19.5793 43.235 19.0893 43.42 18.7093 43.79C18.3393 44.16 18.1393 44.755 18.1093 45.575C18.0993 45.935 18.0993 46.285 18.1093 46.625C18.1393 47.455 18.3393 48.055 18.7093 48.425C19.0893 48.785 19.5793 48.965 20.1793 48.965C20.6393 48.965 21.0243 48.865 21.3343 48.665C21.6443 48.465 21.8893 48.12 22.0693 47.63C22.1193 47.52 22.1693 47.445 22.2193 47.405C22.2693 47.355 22.3443 47.33 22.4443 47.33H23.1643C23.2643 47.33 23.3493 47.36 23.4193 47.42C23.4893 47.48 23.5193 47.56 23.5093 47.66C23.4993 47.87 23.4543 48.085 23.3743 48.305C23.2943 48.525 23.1643 48.75 22.9843 48.98C22.8143 49.2 22.5993 49.4 22.3393 49.58C22.0793 49.75 21.7643 49.89 21.3943 50C21.0343 50.1 20.6243 50.15 20.1643 50.15ZM27.4657 50.15C26.9657 50.15 26.5107 50.05 26.1007 49.85C25.6907 49.65 25.3607 49.38 25.1107 49.04C24.8607 48.7 24.7357 48.315 24.7357 47.885C24.7357 47.195 25.0157 46.645 25.5757 46.235C26.1357 45.825 26.8657 45.555 27.7657 45.425L30.0007 45.11V44.675C30.0007 44.195 29.8607 43.82 29.5807 43.55C29.3107 43.28 28.8657 43.145 28.2457 43.145C27.7957 43.145 27.4307 43.235 27.1507 43.415C26.8807 43.595 26.6907 43.825 26.5807 44.105C26.5207 44.255 26.4157 44.33 26.2657 44.33H25.5907C25.4807 44.33 25.3957 44.3 25.3357 44.24C25.2857 44.17 25.2607 44.09 25.2607 44C25.2607 43.85 25.3157 43.665 25.4257 43.445C25.5457 43.225 25.7257 43.01 25.9657 42.8C26.2057 42.59 26.5107 42.415 26.8807 42.275C27.2607 42.125 27.7207 42.05 28.2607 42.05C28.8607 42.05 29.3657 42.13 29.7757 42.29C30.1857 42.44 30.5057 42.645 30.7357 42.905C30.9757 43.165 31.1457 43.46 31.2457 43.79C31.3557 44.12 31.4107 44.455 31.4107 44.795V49.655C31.4107 49.755 31.3757 49.84 31.3057 49.91C31.2457 49.97 31.1657 50 31.0657 50H30.3757C30.2657 50 30.1807 49.97 30.1207 49.91C30.0607 49.84 30.0307 49.755 30.0307 49.655V49.01C29.9007 49.19 29.7257 49.37 29.5057 49.55C29.2857 49.72 29.0107 49.865 28.6807 49.985C28.3507 50.095 27.9457 50.15 27.4657 50.15ZM27.7807 49.025C28.1907 49.025 28.5657 48.94 28.9057 48.77C29.2457 48.59 29.5107 48.315 29.7007 47.945C29.9007 47.575 30.0007 47.11 30.0007 46.55V46.13L28.2607 46.385C27.5507 46.485 27.0157 46.655 26.6557 46.895C26.2957 47.125 26.1157 47.42 26.1157 47.78C26.1157 48.06 26.1957 48.295 26.3557 48.485C26.5257 48.665 26.7357 48.8 26.9857 48.89C27.2457 48.98 27.5107 49.025 27.7807 49.025ZM36.5388 50C35.9788 50 35.5238 49.895 35.1738 49.685C34.8238 49.465 34.5688 49.16 34.4088 48.77C34.2488 48.37 34.1688 47.9 34.1688 47.36V43.4H32.9988C32.8988 43.4 32.8138 43.37 32.7438 43.31C32.6838 43.24 32.6538 43.155 32.6538 43.055V42.545C32.6538 42.445 32.6838 42.365 32.7438 42.305C32.8138 42.235 32.8988 42.2 32.9988 42.2H34.1688V39.695C34.1688 39.595 34.1988 39.515 34.2588 39.455C34.3288 39.385 34.4138 39.35 34.5138 39.35H35.2188C35.3188 39.35 35.3988 39.385 35.4588 39.455C35.5288 39.515 35.5638 39.595 35.5638 39.695V42.2H37.4238C37.5238 42.2 37.6038 42.235 37.6638 42.305C37.7338 42.365 37.7688 42.445 37.7688 42.545V43.055C37.7688 43.155 37.7338 43.24 37.6638 43.31C37.6038 43.37 37.5238 43.4 37.4238 43.4H35.5638V47.255C35.5638 47.725 35.6438 48.095 35.8038 48.365C35.9638 48.635 36.2488 48.77 36.6588 48.77H37.5738C37.6738 48.77 37.7538 48.805 37.8138 48.875C37.8838 48.935 37.9188 49.015 37.9188 49.115V49.655C37.9188 49.755 37.8838 49.84 37.8138 49.91C37.7538 49.97 37.6738 50 37.5738 50H36.5388ZM39.6982 50C39.5982 50 39.5132 49.97 39.4432 49.91C39.3832 49.84 39.3532 49.755 39.3532 49.655V42.545C39.3532 42.445 39.3832 42.365 39.4432 42.305C39.5132 42.235 39.5982 42.2 39.6982 42.2H40.4182C40.5182 42.2 40.5982 42.235 40.6582 42.305C40.7182 42.365 40.7482 42.445 40.7482 42.545V49.655C40.7482 49.755 40.7182 49.84 40.6582 49.91C40.5982 49.97 40.5182 50 40.4182 50H39.6982ZM39.5782 40.745C39.4782 40.745 39.3932 40.715 39.3232 40.655C39.2632 40.585 39.2332 40.5 39.2332 40.4V39.59C39.2332 39.49 39.2632 39.41 39.3232 39.35C39.3932 39.28 39.4782 39.245 39.5782 39.245H40.5232C40.6232 39.245 40.7032 39.28 40.7632 39.35C40.8332 39.41 40.8682 39.49 40.8682 39.59V40.4C40.8682 40.5 40.8332 40.585 40.7632 40.655C40.7032 40.715 40.6232 40.745 40.5232 40.745H39.5782ZM46.181 50.15C45.421 50.15 44.786 50.005 44.276 49.715C43.766 49.425 43.376 49.025 43.106 48.515C42.836 47.995 42.686 47.405 42.656 46.745C42.646 46.575 42.641 46.36 42.641 46.1C42.641 45.83 42.646 45.615 42.656 45.455C42.686 44.785 42.836 44.195 43.106 43.685C43.386 43.175 43.781 42.775 44.291 42.485C44.801 42.195 45.431 42.05 46.181 42.05C46.931 42.05 47.561 42.195 48.071 42.485C48.581 42.775 48.971 43.175 49.241 43.685C49.521 44.195 49.676 44.785 49.706 45.455C49.716 45.615 49.721 45.83 49.721 46.1C49.721 46.36 49.716 46.575 49.706 46.745C49.676 47.405 49.526 47.995 49.256 48.515C48.986 49.025 48.596 49.425 48.086 49.715C47.576 50.005 46.941 50.15 46.181 50.15ZM46.181 48.995C46.801 48.995 47.296 48.8 47.666 48.41C48.036 48.01 48.236 47.43 48.266 46.67C48.276 46.52 48.281 46.33 48.281 46.1C48.281 45.87 48.276 45.68 48.266 45.53C48.236 44.77 48.036 44.195 47.666 43.805C47.296 43.405 46.801 43.205 46.181 43.205C45.561 43.205 45.061 43.405 44.681 43.805C44.311 44.195 44.116 44.77 44.096 45.53C44.086 45.68 44.081 45.87 44.081 46.1C44.081 46.33 44.086 46.52 44.096 46.67C44.116 47.43 44.311 48.01 44.681 48.41C45.061 48.8 45.561 48.995 46.181 48.995ZM51.9443 50C51.8443 50 51.7593 49.97 51.6893 49.91C51.6293 49.84 51.5993 49.755 51.5993 49.655V42.545C51.5993 42.445 51.6293 42.365 51.6893 42.305C51.7593 42.235 51.8443 42.2 51.9443 42.2H52.6493C52.7493 42.2 52.8293 42.235 52.8893 42.305C52.9593 42.365 52.9943 42.445 52.9943 42.545V43.205C53.2543 42.865 53.5793 42.59 53.9693 42.38C54.3693 42.16 54.8793 42.05 55.4993 42.05C56.1493 42.05 56.6993 42.195 57.1493 42.485C57.6093 42.765 57.9543 43.16 58.1843 43.67C58.4143 44.17 58.5293 44.755 58.5293 45.425V49.655C58.5293 49.755 58.4993 49.84 58.4393 49.91C58.3793 49.97 58.2993 50 58.1993 50H57.4493C57.3493 50 57.2643 49.97 57.1943 49.91C57.1343 49.84 57.1043 49.755 57.1043 49.655V45.5C57.1043 44.8 56.9343 44.255 56.5943 43.865C56.2543 43.465 55.7543 43.265 55.0943 43.265C54.4743 43.265 53.9743 43.465 53.5943 43.865C53.2243 44.255 53.0393 44.8 53.0393 45.5V49.655C53.0393 49.755 53.0043 49.84 52.9343 49.91C52.8743 49.97 52.7943 50 52.6943 50H51.9443Z" fill="#7F5539"/>
</svg>
