<svg width="46" height="49" viewBox="0 0 46 49" fill="none" xmlns="http://www.w3.org/2000/svg">
<path d="M21.5431 1.09775C22.7586 0.415895 24.2414 0.415895 25.4569 1.09775L26.2219 1.52687C26.805 1.85396 27.4608 2.02967 28.1293 2.03795L29.0064 2.04882C30.4 2.06608 31.6841 2.80748 32.3959 4.00576L32.8438 4.75987C33.1852 5.33469 33.6653 5.81475 34.2401 6.15619L34.9942 6.60411C36.1925 7.31587 36.9339 8.60002 36.9512 9.99364L36.962 10.8707C36.9703 11.5392 37.146 12.195 37.4731 12.7781L37.9022 13.5431C38.5841 14.7586 38.5841 16.2414 37.9022 17.4569L37.4731 18.2219C37.146 18.805 36.9703 19.4608 36.962 20.1293L36.9512 21.0064C36.9339 22.4 36.1925 23.6841 34.9942 24.3959L34.2401 24.8438C33.6653 25.1852 33.1852 25.6653 32.8438 26.2401L32.3959 26.9942C31.6841 28.1925 30.4 28.9339 29.0064 28.9512L28.1293 28.962C27.4608 28.9703 26.805 29.146 26.2219 29.4731L25.4569 29.9022C24.2414 30.5841 22.7586 30.5841 21.5431 29.9022L20.7781 29.4731C20.195 29.146 19.5392 28.9703 18.8707 28.962L17.9936 28.9512C16.6 28.9339 15.3159 28.1925 14.6041 26.9942L14.1562 26.2401C13.8148 25.6653 13.3347 25.1852 12.7599 24.8438L12.0058 24.3959C10.8075 23.6841 10.0661 22.4 10.0488 21.0064L10.038 20.1293C10.0297 19.4608 9.85396 18.805 9.52687 18.2219L9.09775 17.4569C8.41589 16.2414 8.41589 14.7586 9.09775 13.5431L9.52687 12.7781C9.85396 12.195 10.0297 11.5392 10.038 10.8707L10.0488 9.99364C10.0661 8.60003 10.8075 7.31587 12.0058 6.60411L12.7599 6.15619C13.3347 5.81475 13.8148 5.33469 14.1562 4.75987L14.6041 4.00576C15.3159 2.80748 16.6 2.06608 17.9936 2.04882L18.8707 2.03795C19.5392 2.02967 20.195 1.85396 20.7781 1.52687L21.5431 1.09775Z" fill="#7F5539"/>
<path d="M19.0714 20.3732L27.7727 10.3333" stroke="white" stroke-opacity="0.97" stroke-width="3" stroke-linecap="round"/>
<circle cx="19.0714" cy="11.0714" r="1.47619" fill="white" fill-opacity="0.97"/>
<circle cx="27.9286" cy="19.9286" r="1.47619" fill="white" fill-opacity="0.97"/>
<path d="M1.65 48C1.54 48 1.455 47.97 1.395 47.91C1.335 47.84 1.305 47.755 1.305 47.655V37.86C1.305 37.75 1.335 37.665 1.395 37.605C1.455 37.535 1.54 37.5 1.65 37.5H5.46C6.2 37.5 6.84 37.62 7.38 37.86C7.93 38.1 8.355 38.46 8.655 38.94C8.955 39.41 9.105 40 9.105 40.71C9.105 41.42 8.955 42.01 8.655 42.48C8.355 42.95 7.93 43.305 7.38 43.545C6.84 43.785 6.2 43.905 5.46 43.905H2.805V47.655C2.805 47.755 2.77 47.84 2.7 47.91C2.64 47.97 2.555 48 2.445 48H1.65ZM2.79 42.645H5.385C6.125 42.645 6.68 42.48 7.05 42.15C7.42 41.82 7.605 41.34 7.605 40.71C7.605 40.09 7.425 39.61 7.065 39.27C6.705 38.93 6.145 38.76 5.385 38.76H2.79V42.645ZM11.079 48C10.979 48 10.894 47.97 10.824 47.91C10.764 47.84 10.734 47.755 10.734 47.655V40.56C10.734 40.46 10.764 40.375 10.824 40.305C10.894 40.235 10.979 40.2 11.079 40.2H11.769C11.869 40.2 11.954 40.235 12.024 40.305C12.094 40.375 12.129 40.46 12.129 40.56V41.22C12.329 40.88 12.604 40.625 12.954 40.455C13.304 40.285 13.724 40.2 14.214 40.2H14.814C14.914 40.2 14.994 40.235 15.054 40.305C15.114 40.365 15.144 40.445 15.144 40.545V41.16C15.144 41.26 15.114 41.34 15.054 41.4C14.994 41.46 14.914 41.49 14.814 41.49H13.914C13.374 41.49 12.949 41.65 12.639 41.97C12.329 42.28 12.174 42.705 12.174 43.245V47.655C12.174 47.755 12.139 47.84 12.069 47.91C11.999 47.97 11.914 48 11.814 48H11.079ZM19.4808 48.15C18.7208 48.15 18.0858 48.005 17.5758 47.715C17.0658 47.425 16.6758 47.025 16.4058 46.515C16.1358 45.995 15.9858 45.405 15.9558 44.745C15.9458 44.575 15.9408 44.36 15.9408 44.1C15.9408 43.83 15.9458 43.615 15.9558 43.455C15.9858 42.785 16.1358 42.195 16.4058 41.685C16.6858 41.175 17.0808 40.775 17.5908 40.485C18.1008 40.195 18.7308 40.05 19.4808 40.05C20.2308 40.05 20.8608 40.195 21.3708 40.485C21.8808 40.775 22.2708 41.175 22.5408 41.685C22.8208 42.195 22.9758 42.785 23.0058 43.455C23.0158 43.615 23.0208 43.83 23.0208 44.1C23.0208 44.36 23.0158 44.575 23.0058 44.745C22.9758 45.405 22.8258 45.995 22.5558 46.515C22.2858 47.025 21.8958 47.425 21.3858 47.715C20.8758 48.005 20.2408 48.15 19.4808 48.15ZM19.4808 46.995C20.1008 46.995 20.5958 46.8 20.9658 46.41C21.3358 46.01 21.5358 45.43 21.5658 44.67C21.5758 44.52 21.5808 44.33 21.5808 44.1C21.5808 43.87 21.5758 43.68 21.5658 43.53C21.5358 42.77 21.3358 42.195 20.9658 41.805C20.5958 41.405 20.1008 41.205 19.4808 41.205C18.8608 41.205 18.3608 41.405 17.9808 41.805C17.6108 42.195 17.4158 42.77 17.3958 43.53C17.3858 43.68 17.3808 43.87 17.3808 44.1C17.3808 44.33 17.3858 44.52 17.3958 44.67C17.4158 45.43 17.6108 46.01 17.9808 46.41C18.3608 46.8 18.8608 46.995 19.4808 46.995ZM25.2441 48C25.1441 48 25.0591 47.97 24.9891 47.91C24.9291 47.84 24.8991 47.755 24.8991 47.655V40.545C24.8991 40.445 24.9291 40.365 24.9891 40.305C25.0591 40.235 25.1441 40.2 25.2441 40.2H25.9191C26.0191 40.2 26.0991 40.235 26.1591 40.305C26.2291 40.365 26.2641 40.445 26.2641 40.545V41.07C26.4941 40.76 26.7841 40.515 27.1341 40.335C27.4841 40.145 27.9041 40.05 28.3941 40.05C29.5241 40.04 30.3241 40.5 30.7941 41.43C31.0241 41.01 31.3591 40.675 31.7991 40.425C32.2391 40.175 32.7391 40.05 33.2991 40.05C33.8191 40.05 34.2891 40.17 34.7091 40.41C35.1391 40.65 35.4741 41.015 35.7141 41.505C35.9641 41.985 36.0891 42.59 36.0891 43.32V47.655C36.0891 47.755 36.0541 47.84 35.9841 47.91C35.9241 47.97 35.8441 48 35.7441 48H35.0391C34.9391 48 34.8541 47.97 34.7841 47.91C34.7241 47.84 34.6941 47.755 34.6941 47.655V43.455C34.6941 42.895 34.6141 42.455 34.4541 42.135C34.2941 41.815 34.0791 41.59 33.8091 41.46C33.5391 41.33 33.2441 41.265 32.9241 41.265C32.6641 41.265 32.3991 41.33 32.1291 41.46C31.8591 41.59 31.6341 41.815 31.4541 42.135C31.2841 42.455 31.1991 42.895 31.1991 43.455V47.655C31.1991 47.755 31.1641 47.84 31.0941 47.91C31.0341 47.97 30.9541 48 30.8541 48H30.1491C30.0491 48 29.9641 47.97 29.8941 47.91C29.8341 47.84 29.8041 47.755 29.8041 47.655V43.455C29.8041 42.895 29.7191 42.455 29.5491 42.135C29.3791 41.815 29.1591 41.59 28.8891 41.46C28.6191 41.33 28.3341 41.265 28.0341 41.265C27.7741 41.265 27.5091 41.33 27.2391 41.46C26.9691 41.59 26.7441 41.815 26.5641 42.135C26.3941 42.455 26.3091 42.89 26.3091 43.44V47.655C26.3091 47.755 26.2741 47.84 26.2041 47.91C26.1441 47.97 26.0641 48 25.9641 48H25.2441ZM41.4241 48.15C40.6641 48.15 40.0291 48.005 39.5191 47.715C39.0091 47.425 38.6191 47.025 38.3491 46.515C38.0791 45.995 37.9291 45.405 37.8991 44.745C37.8891 44.575 37.8841 44.36 37.8841 44.1C37.8841 43.83 37.8891 43.615 37.8991 43.455C37.9291 42.785 38.0791 42.195 38.3491 41.685C38.6291 41.175 39.0241 40.775 39.5341 40.485C40.0441 40.195 40.6741 40.05 41.4241 40.05C42.1741 40.05 42.8041 40.195 43.3141 40.485C43.8241 40.775 44.2141 41.175 44.4841 41.685C44.7641 42.195 44.9191 42.785 44.9491 43.455C44.9591 43.615 44.9641 43.83 44.9641 44.1C44.9641 44.36 44.9591 44.575 44.9491 44.745C44.9191 45.405 44.7691 45.995 44.4991 46.515C44.2291 47.025 43.8391 47.425 43.3291 47.715C42.8191 48.005 42.1841 48.15 41.4241 48.15ZM41.4241 46.995C42.0441 46.995 42.5391 46.8 42.9091 46.41C43.2791 46.01 43.4791 45.43 43.5091 44.67C43.5191 44.52 43.5241 44.33 43.5241 44.1C43.5241 43.87 43.5191 43.68 43.5091 43.53C43.4791 42.77 43.2791 42.195 42.9091 41.805C42.5391 41.405 42.0441 41.205 41.4241 41.205C40.8041 41.205 40.3041 41.405 39.9241 41.805C39.5541 42.195 39.3591 42.77 39.3391 43.53C39.3291 43.68 39.3241 43.87 39.3241 44.1C39.3241 44.33 39.3291 44.52 39.3391 44.67C39.3591 45.43 39.5541 46.01 39.9241 46.41C40.3041 46.8 40.8041 46.995 41.4241 46.995Z" fill="#7F5539"/>
</svg>
