<svg width="46" height="51" viewBox="0 0 46 51" fill="none" xmlns="http://www.w3.org/2000/svg">
<path d="M23.5 31C19.3891 31 15.4467 29.367 12.5398 26.4602C9.63303 23.5533 8 19.6109 8 15.5C8 11.3891 9.63303 7.44666 12.5398 4.53984C15.4467 1.63303 19.3891 0 23.5 0C27.6109 0 31.5533 1.63303 34.4602 4.53984C37.367 7.44666 39 11.3891 39 15.5C39 19.6109 37.367 23.5533 34.4602 26.4602C31.5533 29.367 27.6109 31 23.5 31ZM23.9882 5.94425C23.8785 5.87512 23.7554 5.82991 23.627 5.81157C23.4986 5.79324 23.3678 5.80219 23.2431 5.83784C23.1184 5.8735 23.0026 5.93505 22.9034 6.01849C22.8041 6.10193 22.7235 6.20537 22.6669 6.32206L20.3419 11.0341L15.1416 11.7897C14.9698 11.8133 14.808 11.8849 14.6749 11.9961C14.5418 12.1074 14.4427 12.2539 14.3889 12.4188C14.3351 12.5838 14.3289 12.7605 14.3709 12.9288C14.4128 13.0972 14.5013 13.2503 14.6263 13.3707L18.3927 17.0364L17.5015 22.2173C17.4729 22.3876 17.4924 22.5625 17.5577 22.7223C17.6231 22.8821 17.7317 23.0205 17.8714 23.122C18.0111 23.2234 18.1763 23.2839 18.3485 23.2966C18.5207 23.3093 18.6931 23.2737 18.8461 23.1938L23.5 20.7487L28.15 23.1919C28.303 23.2725 28.4755 23.3088 28.6481 23.2964C28.8206 23.2841 28.9862 23.2237 29.1262 23.122C29.2661 23.0204 29.3748 22.8816 29.4399 22.7213C29.5051 22.5611 29.524 22.3858 29.4946 22.2154L28.6073 17.0364L32.3699 13.3688C32.4927 13.2478 32.5794 13.095 32.6203 12.9275C32.6612 12.76 32.6546 12.5845 32.6013 12.4205C32.548 12.2565 32.4501 12.1107 32.3185 11.9993C32.1869 11.8878 32.0269 11.8153 31.8564 11.7897L26.6543 11.0341L24.3293 6.32206C24.2538 6.16628 24.1355 6.03522 23.9882 5.94425Z" fill="#7F5539"/>
<path d="M1.65 47C1.54 47 1.455 46.97 1.395 46.91C1.335 46.84 1.305 46.755 1.305 46.655V36.86C1.305 36.75 1.335 36.665 1.395 36.605C1.455 36.535 1.54 36.5 1.65 36.5H5.31C6.44 36.5 7.335 36.765 7.995 37.295C8.655 37.825 8.985 38.61 8.985 39.65C8.985 40.42 8.79 41.05 8.4 41.54C8.02 42.02 7.5 42.355 6.84 42.545L9.15 46.535C9.18 46.595 9.195 46.65 9.195 46.7C9.195 46.78 9.16 46.85 9.09 46.91C9.03 46.97 8.96 47 8.88 47H8.16C7.99 47 7.865 46.955 7.785 46.865C7.705 46.775 7.635 46.685 7.575 46.595L5.4 42.785H2.775V46.655C2.775 46.755 2.74 46.84 2.67 46.91C2.61 46.97 2.525 47 2.415 47H1.65ZM2.775 41.51H5.25C6 41.51 6.56 41.355 6.93 41.045C7.3 40.725 7.485 40.255 7.485 39.635C7.485 39.025 7.3 38.56 6.93 38.24C6.57 37.92 6.01 37.76 5.25 37.76H2.775V41.51ZM13.1141 47.15C12.6141 47.15 12.1591 47.05 11.7491 46.85C11.3391 46.65 11.0091 46.38 10.7591 46.04C10.5091 45.7 10.3841 45.315 10.3841 44.885C10.3841 44.195 10.6641 43.645 11.2241 43.235C11.7841 42.825 12.5141 42.555 13.4141 42.425L15.6491 42.11V41.675C15.6491 41.195 15.5091 40.82 15.2291 40.55C14.9591 40.28 14.5141 40.145 13.8941 40.145C13.4441 40.145 13.0791 40.235 12.7991 40.415C12.5291 40.595 12.3391 40.825 12.2291 41.105C12.1691 41.255 12.0641 41.33 11.9141 41.33H11.2391C11.1291 41.33 11.0441 41.3 10.9841 41.24C10.9341 41.17 10.9091 41.09 10.9091 41C10.9091 40.85 10.9641 40.665 11.0741 40.445C11.1941 40.225 11.3741 40.01 11.6141 39.8C11.8541 39.59 12.1591 39.415 12.5291 39.275C12.9091 39.125 13.3691 39.05 13.9091 39.05C14.5091 39.05 15.0141 39.13 15.4241 39.29C15.8341 39.44 16.1541 39.645 16.3841 39.905C16.6241 40.165 16.7941 40.46 16.8941 40.79C17.0041 41.12 17.0591 41.455 17.0591 41.795V46.655C17.0591 46.755 17.0241 46.84 16.9541 46.91C16.8941 46.97 16.8141 47 16.7141 47H16.0241C15.9141 47 15.8291 46.97 15.7691 46.91C15.7091 46.84 15.6791 46.755 15.6791 46.655V46.01C15.5491 46.19 15.3741 46.37 15.1541 46.55C14.9341 46.72 14.6591 46.865 14.3291 46.985C13.9991 47.095 13.5941 47.15 13.1141 47.15ZM13.4291 46.025C13.8391 46.025 14.2141 45.94 14.5541 45.77C14.8941 45.59 15.1591 45.315 15.3491 44.945C15.5491 44.575 15.6491 44.11 15.6491 43.55V43.13L13.9091 43.385C13.1991 43.485 12.6641 43.655 12.3041 43.895C11.9441 44.125 11.7641 44.42 11.7641 44.78C11.7641 45.06 11.8441 45.295 12.0041 45.485C12.1741 45.665 12.3841 45.8 12.6341 45.89C12.8941 45.98 13.1591 46.025 13.4291 46.025ZM22.1872 47C21.6272 47 21.1722 46.895 20.8222 46.685C20.4722 46.465 20.2172 46.16 20.0572 45.77C19.8972 45.37 19.8172 44.9 19.8172 44.36V40.4H18.6472C18.5472 40.4 18.4622 40.37 18.3922 40.31C18.3322 40.24 18.3022 40.155 18.3022 40.055V39.545C18.3022 39.445 18.3322 39.365 18.3922 39.305C18.4622 39.235 18.5472 39.2 18.6472 39.2H19.8172V36.695C19.8172 36.595 19.8472 36.515 19.9072 36.455C19.9772 36.385 20.0622 36.35 20.1622 36.35H20.8672C20.9672 36.35 21.0472 36.385 21.1072 36.455C21.1772 36.515 21.2122 36.595 21.2122 36.695V39.2H23.0722C23.1722 39.2 23.2522 39.235 23.3122 39.305C23.3822 39.365 23.4172 39.445 23.4172 39.545V40.055C23.4172 40.155 23.3822 40.24 23.3122 40.31C23.2522 40.37 23.1722 40.4 23.0722 40.4H21.2122V44.255C21.2122 44.725 21.2922 45.095 21.4522 45.365C21.6122 45.635 21.8972 45.77 22.3072 45.77H23.2222C23.3222 45.77 23.4022 45.805 23.4622 45.875C23.5322 45.935 23.5672 46.015 23.5672 46.115V46.655C23.5672 46.755 23.5322 46.84 23.4622 46.91C23.4022 46.97 23.3222 47 23.2222 47H22.1872ZM25.3466 47C25.2466 47 25.1616 46.97 25.0916 46.91C25.0316 46.84 25.0016 46.755 25.0016 46.655V39.545C25.0016 39.445 25.0316 39.365 25.0916 39.305C25.1616 39.235 25.2466 39.2 25.3466 39.2H26.0666C26.1666 39.2 26.2466 39.235 26.3066 39.305C26.3666 39.365 26.3966 39.445 26.3966 39.545V46.655C26.3966 46.755 26.3666 46.84 26.3066 46.91C26.2466 46.97 26.1666 47 26.0666 47H25.3466ZM25.2266 37.745C25.1266 37.745 25.0416 37.715 24.9716 37.655C24.9116 37.585 24.8816 37.5 24.8816 37.4V36.59C24.8816 36.49 24.9116 36.41 24.9716 36.35C25.0416 36.28 25.1266 36.245 25.2266 36.245H26.1716C26.2716 36.245 26.3516 36.28 26.4116 36.35C26.4816 36.41 26.5166 36.49 26.5166 36.59V37.4C26.5166 37.5 26.4816 37.585 26.4116 37.655C26.3516 37.715 26.2716 37.745 26.1716 37.745H25.2266ZM28.9794 47C28.8794 47 28.7944 46.97 28.7244 46.91C28.6644 46.84 28.6344 46.755 28.6344 46.655V39.545C28.6344 39.445 28.6644 39.365 28.7244 39.305C28.7944 39.235 28.8794 39.2 28.9794 39.2H29.6844C29.7844 39.2 29.8644 39.235 29.9244 39.305C29.9944 39.365 30.0294 39.445 30.0294 39.545V40.205C30.2894 39.865 30.6144 39.59 31.0044 39.38C31.4044 39.16 31.9144 39.05 32.5344 39.05C33.1844 39.05 33.7344 39.195 34.1844 39.485C34.6444 39.765 34.9894 40.16 35.2194 40.67C35.4494 41.17 35.5644 41.755 35.5644 42.425V46.655C35.5644 46.755 35.5344 46.84 35.4744 46.91C35.4144 46.97 35.3344 47 35.2344 47H34.4844C34.3844 47 34.2994 46.97 34.2294 46.91C34.1694 46.84 34.1394 46.755 34.1394 46.655V42.5C34.1394 41.8 33.9694 41.255 33.6294 40.865C33.2894 40.465 32.7894 40.265 32.1294 40.265C31.5094 40.265 31.0094 40.465 30.6294 40.865C30.2594 41.255 30.0744 41.8 30.0744 42.5V46.655C30.0744 46.755 30.0394 46.84 29.9694 46.91C29.9094 46.97 29.8294 47 29.7294 47H28.9794ZM40.9261 50.3C40.2461 50.3 39.6861 50.21 39.2461 50.03C38.8161 49.85 38.4761 49.63 38.2261 49.37C37.9861 49.12 37.8111 48.865 37.7011 48.605C37.6011 48.355 37.5461 48.155 37.5361 48.005C37.5261 47.905 37.5561 47.82 37.6261 47.75C37.7061 47.68 37.7911 47.645 37.8811 47.645H38.6011C38.6911 47.645 38.7661 47.665 38.8261 47.705C38.8861 47.745 38.9361 47.83 38.9761 47.96C39.0361 48.11 39.1261 48.275 39.2461 48.455C39.3661 48.645 39.5511 48.805 39.8011 48.935C40.0511 49.075 40.4011 49.145 40.8511 49.145C41.3211 49.145 41.7161 49.08 42.0361 48.95C42.3561 48.83 42.5961 48.61 42.7561 48.29C42.9261 47.98 43.0111 47.55 43.0111 47V45.98C42.7711 46.29 42.4561 46.55 42.0661 46.76C41.6761 46.96 41.1861 47.06 40.5961 47.06C40.0361 47.06 39.5561 46.965 39.1561 46.775C38.7561 46.575 38.4261 46.31 38.1661 45.98C37.9161 45.64 37.7261 45.255 37.5961 44.825C37.4761 44.395 37.4061 43.945 37.3861 43.475C37.3761 43.195 37.3761 42.92 37.3861 42.65C37.4061 42.18 37.4761 41.73 37.5961 41.3C37.7261 40.87 37.9161 40.485 38.1661 40.145C38.4261 39.805 38.7561 39.54 39.1561 39.35C39.5561 39.15 40.0361 39.05 40.5961 39.05C41.1961 39.05 41.6911 39.165 42.0811 39.395C42.4811 39.615 42.8061 39.885 43.0561 40.205V39.56C43.0561 39.46 43.0861 39.375 43.1461 39.305C43.2161 39.235 43.3011 39.2 43.4011 39.2H44.0911C44.1911 39.2 44.2761 39.235 44.3461 39.305C44.4161 39.375 44.4511 39.46 44.4511 39.56V46.835C44.4511 47.505 44.3361 48.1 44.1061 48.62C43.8861 49.14 43.5161 49.55 42.9961 49.85C42.4861 50.15 41.7961 50.3 40.9261 50.3ZM40.8961 45.86C41.3961 45.86 41.7961 45.745 42.0961 45.515C42.4061 45.285 42.6311 44.995 42.7711 44.645C42.9211 44.295 43.0011 43.94 43.0111 43.58C43.0211 43.44 43.0261 43.27 43.0261 43.07C43.0261 42.86 43.0211 42.685 43.0111 42.545C43.0011 42.185 42.9211 41.83 42.7711 41.48C42.6311 41.13 42.4061 40.84 42.0961 40.61C41.7961 40.38 41.3961 40.265 40.8961 40.265C40.3961 40.265 39.9961 40.38 39.6961 40.61C39.3961 40.83 39.1811 41.125 39.0511 41.495C38.9211 41.855 38.8461 42.245 38.8261 42.665C38.8161 42.925 38.8161 43.19 38.8261 43.46C38.8461 43.88 38.9211 44.275 39.0511 44.645C39.1811 45.005 39.3961 45.3 39.6961 45.53C39.9961 45.75 40.3961 45.86 40.8961 45.86Z" fill="#7F5539"/>
</svg>
