<svg width="19" height="29" viewBox="0 0 19 29" fill="none" xmlns="http://www.w3.org/2000/svg">
<path d="M9.04167 13.5625C8.18524 13.5625 7.36389 13.1865 6.7583 12.5171C6.15272 11.8478 5.8125 10.94 5.8125 9.99342C5.8125 9.04684 6.15272 8.13903 6.7583 7.4697C7.36389 6.80037 8.18524 6.42434 9.04167 6.42434C9.8981 6.42434 10.7194 6.80037 11.325 7.4697C11.9306 8.13903 12.2708 9.04684 12.2708 9.99342C12.2708 10.4621 12.1873 10.9262 12.025 11.3592C11.8627 11.7923 11.6249 12.1857 11.325 12.5171C11.0252 12.8486 10.6692 13.1115 10.2774 13.2908C9.88564 13.4702 9.46573 13.5625 9.04167 13.5625ZM9.04167 0C6.64367 0 4.34388 1.05288 2.64824 2.92701C0.952601 4.80114 0 7.343 0 9.99342C0 17.4885 9.04167 28.5526 9.04167 28.5526C9.04167 28.5526 18.0833 17.4885 18.0833 9.99342C18.0833 7.343 17.1307 4.80114 15.4351 2.92701C13.7394 1.05288 11.4397 0 9.04167 0Z" fill="#7F5539"/>
</svg>
